<svg width="13" height="10" viewBox="0 0 13 10" xmlns="http://www.w3.org/2000/svg"><title>Page 1</title><path d="M6.5 3.889c-.61 0-1.109.5-1.109 1.111s.5 1.111 1.11 1.111c.61 0 1.109-.5 1.109-1.111s-.5-1.111-1.11-1.111zM6.5 0C1.87 0 .275 3.977.275 3.977c-.345.626-.344 1.657.039 2.268 0 0 1.59 3.755 6.186 3.755s6.187-3.712 6.187-3.712c.366-.62.402-1.645.04-2.268 0 0-1.597-4.02-6.227-4.02zm0 7.778A2.749 2.749 0 0 1 3.727 5 2.749 2.749 0 0 1 6.5 2.222 2.749 2.749 0 0 1 9.273 5 2.749 2.749 0 0 1 6.5 7.778z" fill="#D0D0D0" fill-rule="evenodd"/></svg>