<svg width="34" height="34" viewBox="0 0 34 34" xmlns="http://www.w3.org/2000/svg"><title>Combined Shape</title><path d="M32 8H12v24h18a2 2 0 0 0 2-2V8zm0-2V4a2 2 0 0 0-2-2H4a2 2 0 0 0-2 2v2h30zM2 8v22a2 2 0 0 0 2 2h6V8H2zM0 4a4 4 0 0 1 4-4h26a4 4 0 0 1 4 4v26a4 4 0 0 1-4 4H4a4 4 0 0 1-4-4V4zm5 19a1 1 0 0 1 0-2h2a1 1 0 0 1 0 2H5zm0-3a1 1 0 0 1 0-2h2a1 1 0 0 1 0 2H5zm0-3a1 1 0 0 1 0-2h2a1 1 0 0 1 0 2H5zm12 6a1 1 0 0 1 0-2h5a1 1 0 0 1 0 2h-5zm0-3a1 1 0 0 1 0-2h2a1 1 0 0 1 0 2h-2zm0-3a1 1 0 0 1 0-2h5a1 1 0 0 1 0 2h-5zm8 6a1 1 0 0 1 0-2h2a1 1 0 0 1 0 2h-2zm0-6a1 1 0 0 1 0-2h2a1 1 0 0 1 0 2h-2zm-3 3a1 1 0 0 1 0-2h5a1 1 0 0 1 0 2h-5zM11 5a1 1 0 1 1 0-2 1 1 0 0 1 0 2zM8 5a1 1 0 1 1 0-2 1 1 0 0 1 0 2zM5 5a1 1 0 1 1 0-2 1 1 0 0 1 0 2z" fill="#9B9B9B" fill-rule="evenodd"/></svg>