<svg width="34" height="33" viewBox="0 0 34 33" xmlns="http://www.w3.org/2000/svg"><title>Combined Shape</title><path d="M28.77 14.58h2v13.389a4.676 4.676 0 0 1-4.674 4.67H4.673A4.671 4.671 0 0 1 0 27.97V6.67A4.676 4.676 0 0 1 4.673 2H18.71v2H4.673A2.676 2.676 0 0 0 2 6.67V27.97a2.671 2.671 0 0 0 2.673 2.67h21.423a2.676 2.676 0 0 0 2.673-2.67v-13.39zm4.439-8.502c0 3.357-2.734 6.076-6.106 6.076S21 9.435 21 6.078C21 2.72 23.73 0 27.103 0c3.372 0 6.106 2.721 6.106 6.078z" fill="#9B9B9B" fill-rule="nonzero"/></svg>