<svg width="34" height="34" viewBox="0 0 34 34" xmlns="http://www.w3.org/2000/svg"><title>Group 2 Copy 2</title><path d="M2 8.002v20.996A3.003 3.003 0 0 0 5.004 32h23.992A3 3 0 0 0 32 28.998V8.002A3.003 3.003 0 0 0 28.996 5H5.004A3 3 0 0 0 2 8.002zM9 3v-.5C9 1.12 10.122 0 11.498 0h11.004A2.495 2.495 0 0 1 25 2.5V3h3.996A5.003 5.003 0 0 1 34 8.002v20.996A5 5 0 0 1 28.996 34H5.004A5.003 5.003 0 0 1 0 28.998V8.002A5 5 0 0 1 5.004 3H9zm2 0h12v-.5c0-.28-.22-.5-.498-.5H11.498a.502.502 0 0 0-.498.5V3zm13 .5h2v29h-2M8 3.5h2v29H8" fill-rule="nonzero" fill="#28677F"/></svg>