<svg width="34" height="34" viewBox="0 0 34 34" xmlns="http://www.w3.org/2000/svg"><title>Combined Shape</title><path d="M23 2v8h-2V2H4a2 2 0 0 0-2 2v6h30V4a2 2 0 0 0-2-2h-7zm9 10H2v18a2 2 0 0 0 2 2h26a2 2 0 0 0 2-2V12zM0 4a4 4 0 0 1 4-4h26a4 4 0 0 1 4 4v26a4 4 0 0 1-4 4H4a4 4 0 0 1-4-4V4zm5 14a1 1 0 0 1 0-2h17.527a1 1 0 0 1 0 2H5zM5 7a1 1 0 1 1 0-2h8a1 1 0 0 1 0 2H5zm0 16a1 1 0 0 1 0-2h13a1 1 0 0 1 0 2H5zm0 5a1 1 0 0 1 0-2h17.527a1 1 0 0 1 0 2H5zM28.293 7.222l-.801-.8-.778.793a1 1 0 0 1-1.428-1.4L26.77 4.3a1 1 0 0 1 1.42-.007l1.516 1.515a1 1 0 1 1-1.414 1.414z" fill="#9B9B9B" fill-rule="nonzero"/></svg>