<svg width="23" height="22" viewBox="0 0 23 22" xmlns="http://www.w3.org/2000/svg"><title>Combined Shape</title><path d="M14.357 2.002c2.581 0 4.907 1.526 5.894 3.868a6.18 6.18 0 0 1-1.383 6.827 6.466 6.466 0 0 1-6.953 1.359c-2.383-.97-3.938-3.254-3.938-5.789 0-1.661.672-3.255 1.87-4.43a6.435 6.435 0 0 1 4.51-1.835zm0-1.929a8.44 8.44 0 0 1 3.249.645c4.246 1.762 6.233 6.57 4.44 10.74-1.795 4.169-6.691 6.121-10.937 4.36-3.656-1.52-5.717-5.357-4.929-9.177.79-3.82 4.208-6.566 8.177-6.568zM.654 20.215L5.72 15.24c.434-.427 1.101-.468 1.483-.093.381.374.34 1.03-.095 1.456l-5.066 4.975c-.434.427-1.102.468-1.483.093-.382-.376-.34-1.031.095-1.456z" fill="#9B9B9B" fill-rule="evenodd"/></svg>