<svg width="36" height="36" viewBox="0 0 36 36" xmlns="http://www.w3.org/2000/svg"><title>Combined Shape</title><path d="M2 5v26a3 3 0 0 0 3 3h26a3 3 0 0 0 3-3V5a3 3 0 0 0-3-3H5a3 3 0 0 0-3 3zM0 5a5 5 0 0 1 5-5h26a5 5 0 0 1 5 5v26a5 5 0 0 1-5 5H5a5 5 0 0 1-5-5V5zm21 9a4 4 0 1 1 0-8 4 4 0 0 1 0 8zm0-2a2 2 0 1 0 0-4 2 2 0 0 0 0 4zm-.073 13.289l-9.902-8.946-9.36 8.34-1.33-1.493 10.699-9.533 9.883 8.927 7.057-6.474 7.557 7.098-1.369 1.457-6.204-5.826-7.03 6.45z" fill="#9B9B9B" fill-rule="nonzero"/></svg>