<svg width="34" height="34" viewBox="0 0 34 34" xmlns="http://www.w3.org/2000/svg"><title>Combined Shape</title><path d="M23.37 5.002L23.5 5a5.5 5.5 0 0 1 5.499 5.629l.001.131c0 3.181-2.58 5.76-5.764 5.76H10.764A5.766 5.766 0 0 1 5 10.76C5 7.579 7.58 5 10.764 5h12.472c.045 0 .09 0 .134.002zM19.257 7h-8.493A3.761 3.761 0 0 0 7 10.76a3.766 3.766 0 0 0 3.764 3.76h8.982A5.485 5.485 0 0 1 18 10.5c0-1.33.472-2.55 1.257-3.5zM5.001 23.629a5.5 5.5 0 0 1 5.629-5.627l.134-.002h12.472A5.761 5.761 0 0 1 29 23.76c0 3.175-2.58 5.76-5.764 5.76H10.764A5.761 5.761 0 0 1 5 23.629zm9.253 3.891h8.982A3.766 3.766 0 0 0 27 23.76 3.761 3.761 0 0 0 23.236 20h-8.493A5.477 5.477 0 0 1 16 23.5a5.485 5.485 0 0 1-1.746 4.02zM2 4v26a2 2 0 0 0 2 2h26a2 2 0 0 0 2-2V4a2 2 0 0 0-2-2H4a2 2 0 0 0-2 2zM0 4a4 4 0 0 1 4-4h26a4 4 0 0 1 4 4v26a4 4 0 0 1-4 4H4a4 4 0 0 1-4-4V4z" fill="#9B9B9B" fill-rule="nonzero"/></svg>