<svg width="36" height="36" viewBox="0 0 36 36" xmlns="http://www.w3.org/2000/svg"><title>Combined Shape</title><path d="M2 5v26a3 3 0 0 0 3 3h26a3 3 0 0 0 3-3V5a3 3 0 0 0-3-3H5a3 3 0 0 0-3 3zM0 5a5 5 0 0 1 5-5h26a5 5 0 0 1 5 5v26a5 5 0 0 1-5 5H5a5 5 0 0 1-5-5V5zm18 0c7.17 0 13 5.838 13 13.012C31 25.182 25.173 31 18 31S5 25.181 5 18.012C5 10.838 10.83 5 18 5zm0 2C11.936 7 7 11.942 7 18.012 7 24.076 11.93 29 18 29s11-4.924 11-10.988C29 11.942 24.064 7 18 7zm0 2v1.449h.724V9H18zm-4.366 1l-.634.362.724 1.257.634-.362L13.634 10zm9.09 0L22 11.257l.634.362.724-1.257-.634-.362zm1.726 1.063L16.775 16.7a.41.41 0 0 0-.08.08l-5.637 7.686a.373.373 0 0 0 .048.46c.12.117.324.134.462.038l7.675-5.626a.397.397 0 0 0 .08-.08l5.637-7.686c.103-.14.06-.341-.057-.466-.232-.166-.245-.102-.453-.043zM10.362 13l-.362.623 1.256.724.362-.623L10.362 13zm15.894 0L25 13.724l.362.623 1.256-.724-.362-.623zM9 18v.724h1.449V18H9zm17 0v.724h1.449V18H26zm-14.744 4L10 22.724l.362.623 1.256-.724-.362-.623zm14.106 0l-.362.623 1.256.724.362-.623L25.362 22zm-11.638 3L13 26.256l.634.362.724-1.256-.634-.362zm8.91 0l-.634.362.724 1.256.634-.362L22.634 25zM18 26v1.449h.724V26H18z" fill-rule="nonzero" fill="#979797"/></svg>