<svg width="34" height="34" viewBox="0 0 34 34" xmlns="http://www.w3.org/2000/svg"><title>Combined Shape</title><path d="M2 2v5h5V2H2zm-2-.003C0 .894.896 0 1.997 0h5.006C8.106 0 9 .896 9 1.997v5.006A1.998 1.998 0 0 1 7.003 9H1.997A1.998 1.998 0 0 1 0 7.003V1.997zM2 20h5v-5H2v5zm-2-5.003C0 13.894.896 13 1.997 13h5.006C8.106 13 9 13.896 9 14.997v5.006A1.998 1.998 0 0 1 7.003 22H1.997A1.998 1.998 0 0 1 0 20.003v-5.006zM2 32h5v-5H2v5zm-2-5.003C0 25.894.896 25 1.997 25h5.006C8.106 25 9 25.896 9 26.997v5.006A1.998 1.998 0 0 1 7.003 34H1.997A1.998 1.998 0 0 1 0 32.003v-5.006zM14 2v5h5V2h-5zm-2-.003C12 .894 12.896 0 13.997 0h5.006C20.106 0 21 .896 21 1.997v5.006A1.998 1.998 0 0 1 19.003 9h-5.006A1.998 1.998 0 0 1 12 7.003V1.997zM14 20h5v-5h-5v5zm-2-5.003c0-1.103.896-1.997 1.997-1.997h5.006c1.103 0 1.997.896 1.997 1.997v5.006A1.998 1.998 0 0 1 19.003 22h-5.006A1.998 1.998 0 0 1 12 20.003v-5.006zM14 32h5v-5h-5v5zm-2-5.003c0-1.103.896-1.997 1.997-1.997h5.006c1.103 0 1.997.896 1.997 1.997v5.006A1.998 1.998 0 0 1 19.003 34h-5.006A1.998 1.998 0 0 1 12 32.003v-5.006zM27 2v5h5V2h-5zm-2-.003C25 .894 25.896 0 26.997 0h5.006C33.106 0 34 .896 34 1.997v5.006A1.998 1.998 0 0 1 32.003 9h-5.006A1.998 1.998 0 0 1 25 7.003V1.997zM27 20h5v-5h-5v5zm-2-5.003c0-1.103.896-1.997 1.997-1.997h5.006c1.103 0 1.997.896 1.997 1.997v5.006A1.998 1.998 0 0 1 32.003 22h-5.006A1.998 1.998 0 0 1 25 20.003v-5.006zM27 32h5v-5h-5v5zm-2-5.003c0-1.103.896-1.997 1.997-1.997h5.006c1.103 0 1.997.896 1.997 1.997v5.006A1.998 1.998 0 0 1 32.003 34h-5.006A1.998 1.998 0 0 1 25 32.003v-5.006z" fill="#979797" fill-rule="nonzero"/></svg>