<svg width="32" height="32" viewBox="0 0 32 32" xmlns="http://www.w3.org/2000/svg"><title>Combined Shape</title><path d="M16 32C7.163 32 0 24.837 0 16S7.163 0 16 0s16 7.163 16 16-7.163 16-16 16zm0-2c7.732 0 14-6.268 14-14S23.732 2 16 2 2 8.268 2 16s6.268 14 14 14zm-1.55-11.284l2.31-.672c-.231-.189-.399-.546-.399-.882 0-1.764 3.507-1.995 3.507-5.061 0-1.953-1.659-3.318-4.368-3.318-1.806 0-3.486.714-4.599 2.037l1.701 1.911c.651-.798 1.533-1.302 2.583-1.302 1.155 0 1.659.546 1.659 1.197 0 1.449-3.087 1.743-3.087 4.221 0 .735.252 1.386.693 1.869zm1.008 4.515c.924 0 1.701-.777 1.701-1.701s-.777-1.701-1.701-1.701-1.701.777-1.701 1.701.777 1.701 1.701 1.701z" fill-rule="nonzero" fill="#00435B"/></svg>