<svg width="60" height="60" viewBox="0 0 60 60" xmlns="http://www.w3.org/2000/svg"><title>Page 1</title><path d="M56 4v20H36V4h20zm0-4H36c-2.2 0-4 1.8-4 4v20c0 2.2 1.8 4 4 4h20c2.2 0 4-1.8 4-4V4c0-2.2-1.8-4-4-4zM24 4v20H4V4h20zm0-4H4C1.8 0 0 1.8 0 4v20c0 2.2 1.8 4 4 4h20c2.2 0 4-1.8 4-4V4c0-2.2-1.8-4-4-4zm32 36v20H36V36h20zm0-4H36c-2.2 0-4 1.8-4 4v20c0 2.2 1.8 4 4 4h20c2.2 0 4-1.8 4-4V36c0-2.2-1.8-4-4-4zm-32 4v20H4V36h20zm0-4H4c-2.2 0-4 1.8-4 4v20c0 2.2 1.8 4 4 4h20c2.2 0 4-1.8 4-4V36c0-2.2-1.8-4-4-4z" fill="#FFF" fill-rule="evenodd"/></svg>