<svg width="25" height="24" viewBox="0 0 25 24" xmlns="http://www.w3.org/2000/svg"><title>Combined Shape</title><path d="M5.67 20a3.001 3.001 0 0 1 5.66 0h12.778c.493 0 .892.448.892 1s-.4 1-.892 1H11.329a3.001 3.001 0 0 1-5.658 0H.892C.4 22 0 21.552 0 21s.4-1 .892-1h4.779zm13.66-7a3.001 3.001 0 0 1-5.66 0H.893C.4 13 0 12.552 0 12s.4-1 .892-1h12.779a3.001 3.001 0 0 1 5.658 0h4.779c.493 0 .892.448.892 1s-.4 1-.892 1h-4.779zM5.67 2a3.001 3.001 0 0 1 5.66 0h12.778C24.6 2 25 2.448 25 3s-.4 1-.892 1H11.329a3.001 3.001 0 0 1-5.658 0H.892C.4 4 0 3.552 0 3s.4-1 .892-1h4.779zM8.5 4a1 1 0 1 0 0-2 1 1 0 0 0 0 2zm8 9a1 1 0 1 0 0-2 1 1 0 0 0 0 2zm-8 9a1 1 0 1 0 0-2 1 1 0 0 0 0 2z" fill="#979797" fill-rule="nonzero"/></svg>